<?xml version="1.0" encoding="utf-8"?>
<!-- Svg Vector Icons : http://www.onlinewebfonts.com/icon -->
<!DOCTYPE svg PUBLIC "-//W3C//DTD SVG 1.1//EN" "http://www.w3.org/Graphics/SVG/1.1/DTD/svg11.dtd">
<svg version="1.1" xmlns="http://www.w3.org/2000/svg" xmlns:xlink="http://www.w3.org/1999/xlink" x="0px" y="0px" viewBox="0 0 256 256" enable-background="new 0 0 256 256" xml:space="preserve">
<metadata> Svg Vector Icons : http://www.onlinewebfonts.com/icon </metadata>
<g><g><g><path fill="#000000" d="M73.3,10.5c-11.9,1.4-24,6.3-34.3,13.9c-4.7,3.4-13,12-16.3,16.9C7.9,63,5.9,90.5,17.4,114c12.3,25.2,36.8,40.5,64.8,40.5c16.2,0,30.4-4.6,42.9-13.9l4.3-3.2l16,16l16,16l-3.2,3.3c-5.5,5.8-7.9,2.6,29.2,39.7c17.8,17.8,33.1,32.6,34,33.1c1.3,0.5,2.1,0.5,3.4,0c2.5-1,20.6-19.4,21.1-21.4c0.2-1,0.1-2.3-0.5-3.3c-0.5-1-15.3-16.2-33-33.8c-36.3-36.1-33.7-34.2-38.6-29.6l-2.6,2.4l-15.9-15.9c-8.7-8.7-15.9-16.2-15.9-16.4s1-1.9,2.4-3.6c13.2-17.8,16.7-44.2,8.9-66C139.1,26.1,107.1,6.5,73.3,10.5z M96.1,27.2c20.4,5.4,36,21,41.4,41.3c1.9,7.1,1.9,19.8,0.1,27.3c-1.6,6.5-5.2,14.3-8.9,19.4c-3.1,4.4-10.3,11.5-14.5,14.3c-4.6,3.1-12.5,6.6-18.4,8.1c-7.5,1.9-20.2,1.8-27.3-0.1c-20.2-5.4-36-21.1-41.3-41.4c-1.7-6.4-1.9-18-0.5-24.9c4.6-22.2,21.8-39.6,43.9-44.4C77.1,25.3,90.1,25.6,96.1,27.2z"/><path fill="#000000" d="M46.5,47.6c-4.6,4.8-7.1,8.5-9.7,14c-8.7,19-4.6,41.3,10.3,56c7.3,7.2,12.8,10.1,13.9,7.2c0.5-1.5-0.2-2.6-3.5-4.6c-4.6-2.8-11.4-9.9-14.3-14.8c-1.3-2.4-3.2-6.4-4.2-9.1c-1.5-4.5-1.6-5.6-1.6-14c0-8.3,0.1-9.5,1.6-14c2.2-6.6,5.4-11.8,10.3-17.1c4.1-4.4,4.7-5.5,3.3-6.8C51.5,43.2,50.1,43.8,46.5,47.6z"/></g></g></g>
</svg>